{
  "asset": {
    "version": "2.0",
    "generator": "GLTFExporter"
  },
  "scenes": [
    {
      "name": "Scene",
      "nodes": [
        8
      ]
    }
  ],
  "scene": 0,
  "nodes": [
    {
      "name": "pasted__pSphere51_blinn1_0",
      "extras": {
        "name": "pasted__pSphere51_blinn1_0"
      },
      "mesh": 0
    },
    {
      "name": "pasted__pSphere51_blinn2_0",
      "extras": {
        "name": "pasted__pSphere51_blinn2_0"
      },
      "mesh": 1
    },
    {
      "matrix": [
        0.4091930389404297,
        0,
        0,
        0,
        0,
        0.4091930389404297,
        0,
        0,
        0,
        0,
        0.4091930389404297,
        0,
        -2.3298683166503906,
        -0.007156746927648783,
        -0.00002296007369295694,
        1
      ],
      "name": "pasted__pSphere51",
      "extras": {
        "name": "pasted__pSphere51"
      },
      "children": [
        0,
        1
      ]
    },
    {
      "matrix": [
        1,
        0,
        0,
        0,
        0,
        1,
        0,
        0,
        0,
        0,
        1,
        0,
        2.3375682830810547,
        0,
        0,
        1
      ],
      "name": "group",
      "extras": {
        "name": "group"
      },
      "children": [
        2
      ]
    },
    {
      "name": "RootNode",
      "extras": {
        "name": "RootNode"
      },
      "children": [
        3
      ]
    },
    {
      "matrix": [
        1,
        0,
        0,
        0,
        0,
        3.422854177870249e-8,
        0.9999999657714582,
        0,
        0,
        -0.9999999657714582,
        3.422854177870249e-8,
        0,
        0,
        0,
        0,
        1
      ],
      "name": "8ed3a0024f1441dea298ecb29d23bd01fbx",
      "extras": {
        "name": "8ed3a0024f1441dea298ecb29d23bd01.fbx"
      },
      "children": [
        4
      ]
    },
    {
      "name": "RootNode_(model_correction_matrix)",
      "extras": {
        "name": "RootNode (model correction matrix)"
      },
      "children": [
        5
      ]
    },
    {
      "matrix": [
        1,
        0,
        0,
        0,
        0,
        2.028159137428297e-7,
        -0.9999999061668083,
        0,
        0,
        0.9999999061668083,
        2.028159137428297e-7,
        0,
        0,
        0,
        0,
        1
      ],
      "name": "RootNode_(gltf_orientation_matrix)",
      "extras": {
        "name": "RootNode (gltf orientation matrix)"
      },
      "children": [
        6
      ]
    },
    {
      "name": "dice.glb",
      "children": [
        7
      ]
    }
  ],
  "bufferViews": [
    {
      "buffer": 0,
      "byteOffset": 0,
      "byteLength": 35676,
      "target": 34962,
      "byteStride": 12
    },
    {
      "buffer": 0,
      "byteOffset": 35676,
      "byteLength": 35676,
      "target": 34962,
      "byteStride": 12
    },
    {
      "buffer": 0,
      "byteOffset": 71352,
      "byteLength": 58728,
      "target": 34963
    },
    {
      "buffer": 0,
      "byteOffset": 130080,
      "byteLength": 30276,
      "target": 34962,
      "byteStride": 12
    },
    {
      "buffer": 0,
      "byteOffset": 160356,
      "byteLength": 30276,
      "target": 34962,
      "byteStride": 12
    },
    {
      "buffer": 0,
      "byteOffset": 190632,
      "byteLength": 30480,
      "target": 34963
    }
  ],
  "buffers": [
    {
      "byteLength": 221112,
      "uri": "data:application/octet-stream;base64,"
    }
  ],
  "accessors": [
    {
      "bufferView": 0,
      "componentType": 5126,
      "count": 2973,
      "max": [
        1.6601580381393433,
        1.5571496486663818,
        1.64469575881958
      ],
      "min": [
        -1.7814228534698486,
        -1.5813761949539185,
        -1.6448317766189575
      ],
      "type": "VEC3"
    },
    {
      "bufferView": 1,
      "componentType": 5126,
      "count": 2973,
      "max": [
        1,
        1,
        1
      ],
      "min": [
        -0.9999997615814209,
        -1,
        -1
      ],
      "type": "VEC3"
    },
    {
      "bufferView": 2,
      "componentType": 5125,
      "count": 14682,
      "max": [
        2972
      ],
      "min": [
        0
      ],
      "type": "SCALAR"
    },
    {
      "bufferView": 3,
      "componentType": 5126,
      "count": 2523,
      "max": [
        0.9957144856452942,
        1,
        0.9999374747276306
      ],
      "min": [
        -0.999045193195343,
        -0.9961552619934082,
        -1
      ],
      "type": "VEC3"
    },
    {
      "bufferView": 4,
      "componentType": 5126,
      "count": 2523,
      "max": [
        1.6585102081298828,
        1.5562158823013306,
        1.6446441411972046
      ],
      "min": [
        -1.773395299911499,
        -1.581376075744629,
        -1.644758701324463
      ],
      "type": "VEC3"
    },
    {
      "bufferView": 5,
      "componentType": 5125,
      "count": 7620,
      "max": [
        2522
      ],
      "min": [
        0
      ],
      "type": "SCALAR"
    }
  ],
  "materials": [
    {
      "pbrMetallicRoughness": {
        "metallicFactor": 0,
        "roughnessFactor": 1
      },
      "doubleSided": true
    },
    {
      "pbrMetallicRoughness": {
        "baseColorFactor": [
          0.05098039656877518,
          0.05098039656877518,
          0.05098039656877518,
          1
        ],
        "metallicFactor": 0,
        "roughnessFactor": 0.9215686917304993
      },
      "doubleSided": true
    }
  ],
  "meshes": [
    {
      "primitives": [
        {
          "mode": 4,
          "attributes": {
            "POSITION": 0,
            "NORMAL": 1
          },
          "indices": 2,
          "material": 0
        }
      ]
    },
    {
      "primitives": [
        {
          "mode": 4,
          "attributes": {
            "NORMAL": 3,
            "POSITION": 4
          },
          "indices": 5,
          "material": 1
        }
      ]
    }
  ]
}